<?xml version="1.0" encoding="UTF-8" standalone="no"?>
<!DOCTYPE svg PUBLIC "-//W3C//DTD SVG 1.1//EN"
 "http://www.w3.org/Graphics/SVG/1.1/DTD/svg11.dtd">
<!-- Generated by graphviz version 2.38.0 (20140413.2041)
 -->
<!-- Title: controllers_diagram Pages: 1 -->
<svg width="632pt" height="581pt"
 viewBox="0.00 0.00 632.17 581.00" xmlns="http://www.w3.org/2000/svg" xmlns:xlink="http://www.w3.org/1999/xlink">
<g id="graph0" class="graph" transform="scale(1 1) rotate(0) translate(244.483 353.5)">
<title>controllers_diagram</title>
<polygon fill="none" stroke="none" points="-244.483,227.5 -244.483,-353.5 387.688,-353.5 387.688,227.5 -244.483,227.5"/>
<!-- _diagram_info -->
<g id="node1" class="node"><title>_diagram_info</title>
<text text-anchor="start" x="184.312" y="-235.1" font-family="Times,serif" font-size="13.00">Controllers diagram</text>
<text text-anchor="start" x="184.312" y="-222.1" font-family="Times,serif" font-size="13.00">Date: Aug 03 2016 &#45; 00:46</text>
<text text-anchor="start" x="184.312" y="-209.1" font-family="Times,serif" font-size="13.00">Migration version: 20160803044054</text>
<text text-anchor="start" x="184.312" y="-196.1" font-family="Times,serif" font-size="13.00">Generated by RailRoady 1.5.1</text>
<text text-anchor="start" x="184.312" y="-183.1" font-family="Times,serif" font-size="13.00">http://railroady.prestonlee.com</text>
</g>
<!-- ApplicationController -->
<g id="node2" class="node"><title>ApplicationController</title>
<path fill="none" stroke="black" d="M12.1792,-257C12.1792,-257 127.821,-257 127.821,-257 133.821,-257 139.821,-263 139.821,-269 139.821,-269 139.821,-337 139.821,-337 139.821,-343 133.821,-349 127.821,-349 127.821,-349 12.1792,-349 12.1792,-349 6.1792,-349 0.179199,-343 0.179199,-337 0.179199,-337 0.179199,-269 0.179199,-269 0.179199,-263 6.1792,-257 12.1792,-257"/>
<text text-anchor="middle" x="70" y="-333.8" font-family="Times,serif" font-size="14.00">ApplicationController</text>
<polyline fill="none" stroke="black" points="0.179199,-327 139.821,-327 "/>
<polyline fill="none" stroke="black" points="0.179199,-303 139.821,-303 "/>
<polyline fill="none" stroke="black" points="0.179199,-279 139.821,-279 "/>
<text text-anchor="start" x="8.1792" y="-263.8" font-family="Times,serif" font-size="14.00">_layout</text>
</g>
<!-- InstrumentsController -->
<g id="node3" class="node"><title>InstrumentsController</title>
<path fill="none" stroke="black" d="M-67.8242,95C-67.8242,95 47.8242,95 47.8242,95 53.8242,95 59.8242,89 59.8242,83 59.8242,83 59.8242,-81 59.8242,-81 59.8242,-87 53.8242,-93 47.8242,-93 47.8242,-93 -67.8242,-93 -67.8242,-93 -73.8242,-93 -79.8242,-87 -79.8242,-81 -79.8242,-81 -79.8242,83 -79.8242,83 -79.8242,89 -73.8242,95 -67.8242,95"/>
<text text-anchor="middle" x="-10" y="-77.8" font-family="Times,serif" font-size="14.00">InstrumentsController</text>
<polyline fill="none" stroke="black" points="-79.8242,-71 59.8242,-71 "/>
<text text-anchor="start" x="-71.8242" y="-55.8" font-family="Times,serif" font-size="14.00">create</text>
<text text-anchor="start" x="-71.8242" y="-41.8" font-family="Times,serif" font-size="14.00">destroy</text>
<text text-anchor="start" x="-71.8242" y="-27.8" font-family="Times,serif" font-size="14.00">edit</text>
<text text-anchor="start" x="-71.8242" y="-13.8" font-family="Times,serif" font-size="14.00">index</text>
<text text-anchor="start" x="-71.8242" y="0.2" font-family="Times,serif" font-size="14.00">new</text>
<text text-anchor="start" x="-71.8242" y="14.2" font-family="Times,serif" font-size="14.00">update</text>
<polyline fill="none" stroke="black" points="-79.8242,21 59.8242,21 "/>
<polyline fill="none" stroke="black" points="-79.8242,45 59.8242,45 "/>
<text text-anchor="start" x="-71.8242" y="60.2" font-family="Times,serif" font-size="14.00">_layout</text>
<text text-anchor="start" x="-71.8242" y="74.2" font-family="Times,serif" font-size="14.00">instrument_params</text>
<text text-anchor="start" x="-71.8242" y="88.2" font-family="Times,serif" font-size="14.00">set_instrument</text>
</g>
<!-- NewsfeedsController -->
<g id="node4" class="node"><title>NewsfeedsController</title>
<path fill="none" stroke="black" d="M-228.483,-1C-228.483,-1 -117.517,-1 -117.517,-1 -111.517,-1 -105.517,-7 -105.517,-13 -105.517,-13 -105.517,-79 -105.517,-79 -105.517,-85 -111.517,-91 -117.517,-91 -117.517,-91 -228.483,-91 -228.483,-91 -234.483,-91 -240.483,-85 -240.483,-79 -240.483,-79 -240.483,-13 -240.483,-13 -240.483,-7 -234.483,-1 -228.483,-1"/>
<text text-anchor="middle" x="-173" y="-75.8" font-family="Times,serif" font-size="14.00">NewsfeedsController</text>
<polyline fill="none" stroke="black" points="-240.483,-69 -105.517,-69 "/>
<text text-anchor="start" x="-232.483" y="-53.8" font-family="Times,serif" font-size="14.00">index</text>
<polyline fill="none" stroke="black" points="-240.483,-47 -105.517,-47 "/>
<polyline fill="none" stroke="black" points="-240.483,-23 -105.517,-23 "/>
<text text-anchor="start" x="-232.483" y="-7.8" font-family="Times,serif" font-size="14.00">_layout</text>
</g>
<!-- PagesController -->
<g id="node5" class="node"><title>PagesController</title>
<path fill="none" stroke="black" d="M-132.104,-257C-132.104,-257 -49.8965,-257 -49.8965,-257 -43.8965,-257 -37.8965,-263 -37.8965,-269 -37.8965,-269 -37.8965,-335 -37.8965,-335 -37.8965,-341 -43.8965,-347 -49.8965,-347 -49.8965,-347 -132.104,-347 -132.104,-347 -138.104,-347 -144.104,-341 -144.104,-335 -144.104,-335 -144.104,-269 -144.104,-269 -144.104,-263 -138.104,-257 -132.104,-257"/>
<text text-anchor="middle" x="-91" y="-331.8" font-family="Times,serif" font-size="14.00">PagesController</text>
<polyline fill="none" stroke="black" points="-144.104,-325 -37.8965,-325 "/>
<text text-anchor="start" x="-136.104" y="-309.8" font-family="Times,serif" font-size="14.00">index</text>
<polyline fill="none" stroke="black" points="-144.104,-303 -37.8965,-303 "/>
<polyline fill="none" stroke="black" points="-144.104,-279 -37.8965,-279 "/>
<text text-anchor="start" x="-136.104" y="-263.8" font-family="Times,serif" font-size="14.00">_layout</text>
</g>
<!-- Users::ConfirmationsController -->
<g id="node6" class="node"><title>Users::ConfirmationsController</title>
<path fill="none" stroke="black" d="M-115.662,-129C-115.662,-129 53.6621,-129 53.6621,-129 59.6621,-129 65.6621,-135 65.6621,-141 65.6621,-141 65.6621,-209 65.6621,-209 65.6621,-215 59.6621,-221 53.6621,-221 53.6621,-221 -115.662,-221 -115.662,-221 -121.662,-221 -127.662,-215 -127.662,-209 -127.662,-209 -127.662,-141 -127.662,-141 -127.662,-135 -121.662,-129 -115.662,-129"/>
<text text-anchor="middle" x="-31" y="-205.8" font-family="Times,serif" font-size="14.00">Users::ConfirmationsController</text>
<polyline fill="none" stroke="black" points="-127.662,-199 65.6621,-199 "/>
<polyline fill="none" stroke="black" points="-127.662,-175 65.6621,-175 "/>
<polyline fill="none" stroke="black" points="-127.662,-151 65.6621,-151 "/>
<text text-anchor="start" x="-119.662" y="-135.8" font-family="Times,serif" font-size="14.00">_layout</text>
</g>
<!-- Users::OmniauthCallbacksController -->
<g id="node7" class="node"><title>Users::OmniauthCallbacksController</title>
<path fill="none" stroke="black" d="M107.796,95C107.796,95 308.204,95 308.204,95 314.204,95 320.204,89 320.204,83 320.204,83 320.204,15 320.204,15 320.204,9 314.204,3 308.204,3 308.204,3 107.796,3 107.796,3 101.796,3 95.7964,9 95.7964,15 95.7964,15 95.7964,83 95.7964,83 95.7964,89 101.796,95 107.796,95"/>
<text text-anchor="middle" x="208" y="18.2" font-family="Times,serif" font-size="14.00">Users::OmniauthCallbacksController</text>
<polyline fill="none" stroke="black" points="95.7964,25 320.204,25 "/>
<polyline fill="none" stroke="black" points="95.7964,49 320.204,49 "/>
<polyline fill="none" stroke="black" points="95.7964,73 320.204,73 "/>
<text text-anchor="start" x="103.796" y="88.2" font-family="Times,serif" font-size="14.00">_layout</text>
</g>
<!-- Users::PasswordsController -->
<g id="node8" class="node"><title>Users::PasswordsController</title>
<path fill="none" stroke="black" d="M11.8379,223C11.8379,223 160.162,223 160.162,223 166.162,223 172.162,217 172.162,211 172.162,211 172.162,143 172.162,143 172.162,137 166.162,131 160.162,131 160.162,131 11.8379,131 11.8379,131 5.83789,131 -0.162109,137 -0.162109,143 -0.162109,143 -0.162109,211 -0.162109,211 -0.162109,217 5.83789,223 11.8379,223"/>
<text text-anchor="middle" x="86" y="146.2" font-family="Times,serif" font-size="14.00">Users::PasswordsController</text>
<polyline fill="none" stroke="black" points="-0.162109,153 172.162,153 "/>
<polyline fill="none" stroke="black" points="-0.162109,177 172.162,177 "/>
<polyline fill="none" stroke="black" points="-0.162109,201 172.162,201 "/>
<text text-anchor="start" x="7.83789" y="216.2" font-family="Times,serif" font-size="14.00">_layout</text>
</g>
<!-- Users::RegistrationsController -->
<g id="node9" class="node"><title>Users::RegistrationsController</title>
<path fill="none" stroke="black" d="M108.455,-33C108.455,-33 271.545,-33 271.545,-33 277.545,-33 283.545,-39 283.545,-45 283.545,-45 283.545,-139 283.545,-139 283.545,-145 277.545,-151 271.545,-151 271.545,-151 108.455,-151 108.455,-151 102.455,-151 96.4551,-145 96.4551,-139 96.4551,-139 96.4551,-45 96.4551,-45 96.4551,-39 102.455,-33 108.455,-33"/>
<text text-anchor="middle" x="190" y="-135.8" font-family="Times,serif" font-size="14.00">Users::RegistrationsController</text>
<polyline fill="none" stroke="black" points="96.4551,-129 283.545,-129 "/>
<text text-anchor="start" x="104.455" y="-113.8" font-family="Times,serif" font-size="14.00">after_sign_up_path_for</text>
<text text-anchor="start" x="104.455" y="-99.8" font-family="Times,serif" font-size="14.00">configure_sign_up_params</text>
<text text-anchor="start" x="104.455" y="-85.8" font-family="Times,serif" font-size="14.00">new</text>
<polyline fill="none" stroke="black" points="96.4551,-79 283.545,-79 "/>
<polyline fill="none" stroke="black" points="96.4551,-55 283.545,-55 "/>
<text text-anchor="start" x="104.455" y="-39.8" font-family="Times,serif" font-size="14.00">_layout</text>
</g>
<!-- Users::SessionsController -->
<g id="node10" class="node"><title>Users::SessionsController</title>
<path fill="none" stroke="black" d="M220.279,223C220.279,223 357.721,223 357.721,223 363.721,223 369.721,217 369.721,211 369.721,211 369.721,145 369.721,145 369.721,139 363.721,133 357.721,133 357.721,133 220.279,133 220.279,133 214.279,133 208.279,139 208.279,145 208.279,145 208.279,211 208.279,211 208.279,217 214.279,223 220.279,223"/>
<text text-anchor="middle" x="289" y="148.2" font-family="Times,serif" font-size="14.00">Users::SessionsController</text>
<polyline fill="none" stroke="black" points="208.279,155 369.721,155 "/>
<text text-anchor="start" x="216.279" y="170.2" font-family="Times,serif" font-size="14.00">after_sign_in_path_for</text>
<polyline fill="none" stroke="black" points="208.279,177 369.721,177 "/>
<polyline fill="none" stroke="black" points="208.279,201 369.721,201 "/>
<text text-anchor="start" x="216.279" y="216.2" font-family="Times,serif" font-size="14.00">_layout</text>
</g>
<!-- Users::UnlocksController -->
<g id="node11" class="node"><title>Users::UnlocksController</title>
<path fill="none" stroke="black" d="M-211.935,223C-211.935,223 -76.0654,223 -76.0654,223 -70.0654,223 -64.0654,217 -64.0654,211 -64.0654,211 -64.0654,143 -64.0654,143 -64.0654,137 -70.0654,131 -76.0654,131 -76.0654,131 -211.935,131 -211.935,131 -217.935,131 -223.935,137 -223.935,143 -223.935,143 -223.935,211 -223.935,211 -223.935,217 -217.935,223 -211.935,223"/>
<text text-anchor="middle" x="-144" y="146.2" font-family="Times,serif" font-size="14.00">Users::UnlocksController</text>
<polyline fill="none" stroke="black" points="-223.935,153 -64.0654,153 "/>
<polyline fill="none" stroke="black" points="-223.935,177 -64.0654,177 "/>
<polyline fill="none" stroke="black" points="-223.935,201 -64.0654,201 "/>
<text text-anchor="start" x="-215.935" y="216.2" font-family="Times,serif" font-size="14.00">_layout</text>
</g>
</g>
</svg>
