<?xml version="1.0" encoding="UTF-8" standalone="no"?>
<!DOCTYPE svg PUBLIC "-//W3C//DTD SVG 1.1//EN"
 "http://www.w3.org/Graphics/SVG/1.1/DTD/svg11.dtd">
<!-- Generated by graphviz version 2.38.0 (20140413.2041)
 -->
<!-- Title: models_diagram Pages: 1 -->
<svg width="450pt" height="225pt"
 viewBox="0.00 0.00 449.81 225.00" xmlns="http://www.w3.org/2000/svg" xmlns:xlink="http://www.w3.org/1999/xlink">
<g id="graph0" class="graph" transform="scale(1 1) rotate(0) translate(4 221)">
<title>models_diagram</title>
<polygon fill="none" stroke="none" points="-4,4 -4,-221 445.807,-221 445.807,4 -4,4"/>
<!-- _diagram_info -->
<g id="node1" class="node"><title>_diagram_info</title>
<text text-anchor="start" x="8" y="-202.6" font-family="Times,serif" font-size="13.00">Models diagram</text>
<text text-anchor="start" x="8" y="-189.6" font-family="Times,serif" font-size="13.00">Date: Aug 03 2016 &#45; 00:45</text>
<text text-anchor="start" x="8" y="-176.6" font-family="Times,serif" font-size="13.00">Migration version: 20160803044054</text>
<text text-anchor="start" x="8" y="-163.6" font-family="Times,serif" font-size="13.00">Generated by RailRoady 1.5.1</text>
<text text-anchor="start" x="8" y="-150.6" font-family="Times,serif" font-size="13.00">http://railroady.prestonlee.com</text>
</g>
<!-- Band -->
<g id="node2" class="node"><title>Band</title>
<ellipse fill="none" stroke="black" cx="253.688" cy="-180.5" rx="28.5497" ry="18"/>
<text text-anchor="middle" x="253.688" y="-176.3" font-family="Times,serif" font-size="14.00">Band</text>
</g>
<!-- User -->
<g id="node4" class="node"><title>User</title>
<ellipse fill="none" stroke="black" cx="310.688" cy="-90" rx="27" ry="18"/>
<text text-anchor="middle" x="310.688" y="-85.8" font-family="Times,serif" font-size="14.00">User</text>
</g>
<!-- Band&#45;&gt;User -->
<g id="edge2" class="edge"><title>Band&#45;&gt;User</title>
<path fill="none" stroke="#9023d1" d="M269.623,-154.758C277.578,-142.407 287.166,-127.521 295.075,-115.24"/>
<polygon fill="#9023d1" stroke="#9023d1" points="269.557,-154.861 260.359,-160.831 266.85,-159.064 264.142,-163.268 264.142,-163.268 264.142,-163.268 266.85,-159.064 267.926,-165.704 269.557,-154.861 269.557,-154.861"/>
<polygon fill="#9023d1" stroke="#9023d1" points="295.076,-115.239 304.274,-109.268 297.784,-111.035 300.491,-106.832 300.491,-106.832 300.491,-106.832 297.784,-111.035 296.708,-104.395 295.076,-115.239 295.076,-115.239"/>
</g>
<!-- UserBand -->
<g id="node5" class="node"><title>UserBand</title>
<ellipse fill="none" stroke="black" cx="247.688" cy="-18" rx="45.4441" ry="18"/>
<text text-anchor="middle" x="247.688" y="-13.8" font-family="Times,serif" font-size="14.00">UserBand</text>
</g>
<!-- Band&#45;&gt;UserBand -->
<g id="edge1" class="edge"><title>Band&#45;&gt;UserBand</title>
<path fill="none" stroke="#a35e99" d="M252.737,-154.079C251.638,-124.675 249.836,-76.4552 248.708,-46.2837"/>
<ellipse fill="none" stroke="#a35e99" cx="252.896" cy="-158.326" rx="4" ry="4"/>
<polygon fill="#a35e99" stroke="#a35e99" points="248.699,-46.0458 252.822,-35.8847 248.512,-41.0493 248.325,-36.0528 248.325,-36.0528 248.325,-36.0528 248.512,-41.0493 243.828,-36.221 248.699,-46.0458 248.699,-46.0458"/>
</g>
<!-- Instrument -->
<g id="node3" class="node"><title>Instrument</title>
<ellipse fill="none" stroke="black" cx="351.688" cy="-180.5" rx="48.3427" ry="18"/>
<text text-anchor="middle" x="351.688" y="-176.3" font-family="Times,serif" font-size="14.00">Instrument</text>
</g>
<!-- Instrument&#45;&gt;User -->
<g id="edge4" class="edge"><title>Instrument&#45;&gt;User</title>
<path fill="none" stroke="#d839f1" d="M339.518,-153.232C334.141,-141.625 327.842,-128.029 322.506,-116.51"/>
<polygon fill="#d839f1" stroke="#d839f1" points="339.579,-153.363 339.699,-164.328 341.681,-157.9 343.783,-162.436 343.783,-162.436 343.783,-162.436 341.681,-157.9 347.866,-160.545 339.579,-153.363 339.579,-153.363"/>
<polygon fill="#d839f1" stroke="#d839f1" points="322.495,-116.486 322.375,-105.521 320.393,-111.95 318.291,-107.413 318.291,-107.413 318.291,-107.413 320.393,-111.95 314.208,-109.305 322.495,-116.486 322.495,-116.486"/>
</g>
<!-- UserInstrument -->
<g id="node6" class="node"><title>UserInstrument</title>
<ellipse fill="none" stroke="black" cx="376.688" cy="-18" rx="65.239" ry="18"/>
<text text-anchor="middle" x="376.688" y="-13.8" font-family="Times,serif" font-size="14.00">UserInstrument</text>
</g>
<!-- Instrument&#45;&gt;UserInstrument -->
<g id="edge3" class="edge"><title>Instrument&#45;&gt;UserInstrument</title>
<path fill="none" stroke="#16abfd" d="M355.647,-154.079C360.227,-124.675 367.738,-76.4552 372.438,-46.2837"/>
<ellipse fill="none" stroke="#16abfd" cx="354.979" cy="-158.371" rx="4.00001" ry="4.00001"/>
<polygon fill="#16abfd" stroke="#16abfd" points="372.492,-45.9337 378.478,-36.7454 373.262,-40.9932 374.032,-36.0528 374.032,-36.0528 374.032,-36.0528 373.262,-40.9932 369.585,-35.3602 372.492,-45.9337 372.492,-45.9337"/>
</g>
<!-- User&#45;&gt;UserBand -->
<g id="edge6" class="edge"><title>User&#45;&gt;UserBand</title>
<path fill="none" stroke="#f03079" d="M291.731,-67.9367C284.592,-60.0048 276.426,-50.9315 269.08,-42.7695"/>
<ellipse fill="none" stroke="#f03079" cx="294.651" cy="-71.1816" rx="4.00002" ry="4.00002"/>
<polygon fill="#f03079" stroke="#f03079" points="269.039,-42.7234 265.694,-32.2801 265.694,-39.0069 262.349,-35.2905 262.349,-35.2905 262.349,-35.2905 265.694,-39.0069 259.004,-38.3008 269.039,-42.7234 269.039,-42.7234"/>
</g>
<!-- User&#45;&gt;UserInstrument -->
<g id="edge5" class="edge"><title>User&#45;&gt;UserInstrument</title>
<path fill="none" stroke="#a6fcae" d="M330.186,-68.3197C337.594,-60.4629 346.099,-51.4428 353.793,-43.2828"/>
<ellipse fill="none" stroke="#a6fcae" cx="327.429" cy="-71.2444" rx="4.00002" ry="4.00002"/>
<polygon fill="#a6fcae" stroke="#a6fcae" points="353.998,-43.0649 364.132,-38.8761 357.428,-39.427 360.858,-35.789 360.858,-35.789 360.858,-35.789 357.428,-39.427 357.584,-32.7019 353.998,-43.0649 353.998,-43.0649"/>
</g>
</g>
</svg>
