<?xml version="1.0" encoding="UTF-8" standalone="no"?>
<!DOCTYPE svg PUBLIC "-//W3C//DTD SVG 1.1//EN"
 "http://www.w3.org/Graphics/SVG/1.1/DTD/svg11.dtd">
<!-- Generated by graphviz version 2.38.0 (20140413.2041)
 -->
<!-- Title: models_diagram Pages: 1 -->
<svg width="802pt" height="509pt"
 viewBox="0.00 0.00 801.55 509.00" xmlns="http://www.w3.org/2000/svg" xmlns:xlink="http://www.w3.org/1999/xlink">
<g id="graph0" class="graph" transform="scale(1 1) rotate(0) translate(4 505)">
<title>models_diagram</title>
<polygon fill="none" stroke="none" points="-4,4 -4,-505 797.55,-505 797.55,4 -4,4"/>
<!-- _diagram_info -->
<g id="node1" class="node"><title>_diagram_info</title>
<text text-anchor="start" x="8" y="-472.6" font-family="Times,serif" font-size="13.00">Models diagram</text>
<text text-anchor="start" x="8" y="-459.6" font-family="Times,serif" font-size="13.00">Date: Aug 03 2016 &#45; 00:45</text>
<text text-anchor="start" x="8" y="-446.6" font-family="Times,serif" font-size="13.00">Migration version: 20160803044054</text>
<text text-anchor="start" x="8" y="-433.6" font-family="Times,serif" font-size="13.00">Generated by RailRoady 1.5.1</text>
<text text-anchor="start" x="8" y="-420.6" font-family="Times,serif" font-size="13.00">http://railroady.prestonlee.com</text>
</g>
<!-- Band -->
<g id="node2" class="node"><title>Band</title>
<path fill="none" stroke="black" d="M237.825,-400.5C237.825,-400.5 461.55,-400.5 461.55,-400.5 467.55,-400.5 473.55,-406.5 473.55,-412.5 473.55,-412.5 473.55,-488.5 473.55,-488.5 473.55,-494.5 467.55,-500.5 461.55,-500.5 461.55,-500.5 237.825,-500.5 237.825,-500.5 231.825,-500.5 225.825,-494.5 225.825,-488.5 225.825,-488.5 225.825,-412.5 225.825,-412.5 225.825,-406.5 231.825,-400.5 237.825,-400.5"/>
<text text-anchor="middle" x="349.688" y="-485.3" font-family="Times,serif" font-size="14.00">Band</text>
<polyline fill="none" stroke="black" points="225.825,-478.5 473.55,-478.5 "/>
<text text-anchor="start" x="233.825" y="-463.3" font-family="Times,serif" font-size="14.00">id :integer</text>
<text text-anchor="start" x="233.825" y="-449.3" font-family="Times,serif" font-size="14.00">name :character varying</text>
<text text-anchor="start" x="233.825" y="-435.3" font-family="Times,serif" font-size="14.00">description :text</text>
<text text-anchor="start" x="233.825" y="-421.3" font-family="Times,serif" font-size="14.00">created_at :timestamp without time zone</text>
<text text-anchor="start" x="233.825" y="-407.3" font-family="Times,serif" font-size="14.00">updated_at :timestamp without time zone</text>
</g>
<!-- User -->
<g id="node4" class="node"><title>User</title>
<path fill="none" stroke="black" d="M362.053,-137.5C362.053,-137.5 657.323,-137.5 657.323,-137.5 663.323,-137.5 669.323,-143.5 669.323,-149.5 669.323,-149.5 669.323,-351.5 669.323,-351.5 669.323,-357.5 663.323,-363.5 657.323,-363.5 657.323,-363.5 362.053,-363.5 362.053,-363.5 356.053,-363.5 350.053,-357.5 350.053,-351.5 350.053,-351.5 350.053,-149.5 350.053,-149.5 350.053,-143.5 356.053,-137.5 362.053,-137.5"/>
<text text-anchor="middle" x="509.688" y="-348.3" font-family="Times,serif" font-size="14.00">User</text>
<polyline fill="none" stroke="black" points="350.053,-341.5 669.323,-341.5 "/>
<text text-anchor="start" x="358.053" y="-326.3" font-family="Times,serif" font-size="14.00">artisticName :character varying</text>
<text text-anchor="start" x="358.053" y="-312.3" font-family="Times,serif" font-size="14.00">email :character varying</text>
<text text-anchor="start" x="358.053" y="-298.3" font-family="Times,serif" font-size="14.00">encrypted_password :character varying</text>
<text text-anchor="start" x="358.053" y="-284.3" font-family="Times,serif" font-size="14.00">reset_password_token :character varying</text>
<text text-anchor="start" x="358.053" y="-270.3" font-family="Times,serif" font-size="14.00">reset_password_sent_at :timestamp without time zone</text>
<text text-anchor="start" x="358.053" y="-256.3" font-family="Times,serif" font-size="14.00">remember_created_at :timestamp without time zone</text>
<text text-anchor="start" x="358.053" y="-242.3" font-family="Times,serif" font-size="14.00">sign_in_count :integer</text>
<text text-anchor="start" x="358.053" y="-228.3" font-family="Times,serif" font-size="14.00">current_sign_in_at :timestamp without time zone</text>
<text text-anchor="start" x="358.053" y="-214.3" font-family="Times,serif" font-size="14.00">last_sign_in_at :timestamp without time zone</text>
<text text-anchor="start" x="358.053" y="-200.3" font-family="Times,serif" font-size="14.00">current_sign_in_ip :inet</text>
<text text-anchor="start" x="358.053" y="-186.3" font-family="Times,serif" font-size="14.00">last_sign_in_ip :inet</text>
<text text-anchor="start" x="358.053" y="-172.3" font-family="Times,serif" font-size="14.00">created_at :timestamp without time zone</text>
<text text-anchor="start" x="358.053" y="-158.3" font-family="Times,serif" font-size="14.00">updated_at :timestamp without time zone</text>
<text text-anchor="start" x="358.053" y="-144.3" font-family="Times,serif" font-size="14.00">id :integer</text>
</g>
<!-- Band&#45;&gt;User -->
<g id="edge2" class="edge"><title>Band&#45;&gt;User</title>
<path fill="none" stroke="#b9c16c" d="M395.81,-392.424C401.239,-385.706 406.922,-378.672 412.731,-371.483"/>
<polygon fill="#b9c16c" stroke="#b9c16c" points="395.729,-392.524 385.944,-397.473 392.587,-396.413 389.444,-400.302 389.444,-400.302 389.444,-400.302 392.587,-396.413 392.944,-403.13 395.729,-392.524 395.729,-392.524"/>
<polygon fill="#b9c16c" stroke="#b9c16c" points="412.792,-371.408 422.578,-366.458 415.935,-367.519 419.078,-363.63 419.078,-363.63 419.078,-363.63 415.935,-367.519 415.578,-360.802 412.792,-371.408 412.792,-371.408"/>
</g>
<!-- UserBand -->
<g id="node5" class="node"><title>UserBand</title>
<path fill="none" stroke="black" d="M264.825,-0.5C264.825,-0.5 488.55,-0.5 488.55,-0.5 494.55,-0.5 500.55,-6.5 500.55,-12.5 500.55,-12.5 500.55,-88.5 500.55,-88.5 500.55,-94.5 494.55,-100.5 488.55,-100.5 488.55,-100.5 264.825,-100.5 264.825,-100.5 258.825,-100.5 252.825,-94.5 252.825,-88.5 252.825,-88.5 252.825,-12.5 252.825,-12.5 252.825,-6.5 258.825,-0.5 264.825,-0.5"/>
<text text-anchor="middle" x="376.688" y="-85.3" font-family="Times,serif" font-size="14.00">UserBand</text>
<polyline fill="none" stroke="black" points="252.825,-78.5 500.55,-78.5 "/>
<text text-anchor="start" x="260.825" y="-63.3" font-family="Times,serif" font-size="14.00">id :integer</text>
<text text-anchor="start" x="260.825" y="-49.3" font-family="Times,serif" font-size="14.00">user_id :integer</text>
<text text-anchor="start" x="260.825" y="-35.3" font-family="Times,serif" font-size="14.00">band_id :integer</text>
<text text-anchor="start" x="260.825" y="-21.3" font-family="Times,serif" font-size="14.00">created_at :timestamp without time zone</text>
<text text-anchor="start" x="260.825" y="-7.3" font-family="Times,serif" font-size="14.00">updated_at :timestamp without time zone</text>
</g>
<!-- Band&#45;&gt;UserBand -->
<g id="edge1" class="edge"><title>Band&#45;&gt;UserBand</title>
<path fill="none" stroke="#66a075" d="M340.341,-392.215C331.807,-329.036 322.977,-224.703 340.688,-137 342.491,-128.073 345.253,-118.918 348.464,-110.071"/>
<ellipse fill="none" stroke="#66a075" cx="340.937" cy="-396.508" rx="4.00001" ry="4.00001"/>
<polygon fill="#66a075" stroke="#66a075" points="348.51,-109.952 356.3,-102.233 350.305,-105.285 352.1,-100.618 352.1,-100.618 352.1,-100.618 350.305,-105.285 347.9,-99.0027 348.51,-109.952 348.51,-109.952"/>
</g>
<!-- Instrument -->
<g id="node3" class="node"><title>Instrument</title>
<path fill="none" stroke="black" d="M530.825,-407.5C530.825,-407.5 754.55,-407.5 754.55,-407.5 760.55,-407.5 766.55,-413.5 766.55,-419.5 766.55,-419.5 766.55,-481.5 766.55,-481.5 766.55,-487.5 760.55,-493.5 754.55,-493.5 754.55,-493.5 530.825,-493.5 530.825,-493.5 524.825,-493.5 518.825,-487.5 518.825,-481.5 518.825,-481.5 518.825,-419.5 518.825,-419.5 518.825,-413.5 524.825,-407.5 530.825,-407.5"/>
<text text-anchor="middle" x="642.688" y="-478.3" font-family="Times,serif" font-size="14.00">Instrument</text>
<polyline fill="none" stroke="black" points="518.825,-471.5 766.55,-471.5 "/>
<text text-anchor="start" x="526.825" y="-456.3" font-family="Times,serif" font-size="14.00">id :integer</text>
<text text-anchor="start" x="526.825" y="-442.3" font-family="Times,serif" font-size="14.00">name :character varying</text>
<text text-anchor="start" x="526.825" y="-428.3" font-family="Times,serif" font-size="14.00">created_at :timestamp without time zone</text>
<text text-anchor="start" x="526.825" y="-414.3" font-family="Times,serif" font-size="14.00">updated_at :timestamp without time zone</text>
</g>
<!-- Instrument&#45;&gt;User -->
<g id="edge4" class="edge"><title>Instrument&#45;&gt;User</title>
<path fill="none" stroke="#6240bb" d="M608.485,-398.582C602.923,-390.301 596.963,-381.429 590.828,-372.295"/>
<polygon fill="#6240bb" stroke="#6240bb" points="608.58,-398.723 610.42,-409.533 611.368,-402.873 614.156,-407.024 614.156,-407.024 614.156,-407.024 611.368,-402.873 617.891,-404.515 608.58,-398.723 608.58,-398.723"/>
<polygon fill="#6240bb" stroke="#6240bb" points="590.727,-372.145 588.887,-361.335 587.939,-367.995 585.151,-363.844 585.151,-363.844 585.151,-363.844 587.939,-367.995 581.416,-366.353 590.727,-372.145 590.727,-372.145"/>
</g>
<!-- UserInstrument -->
<g id="node6" class="node"><title>UserInstrument</title>
<path fill="none" stroke="black" d="M557.825,-0.5C557.825,-0.5 781.55,-0.5 781.55,-0.5 787.55,-0.5 793.55,-6.5 793.55,-12.5 793.55,-12.5 793.55,-88.5 793.55,-88.5 793.55,-94.5 787.55,-100.5 781.55,-100.5 781.55,-100.5 557.825,-100.5 557.825,-100.5 551.825,-100.5 545.825,-94.5 545.825,-88.5 545.825,-88.5 545.825,-12.5 545.825,-12.5 545.825,-6.5 551.825,-0.5 557.825,-0.5"/>
<text text-anchor="middle" x="669.688" y="-85.3" font-family="Times,serif" font-size="14.00">UserInstrument</text>
<polyline fill="none" stroke="black" points="545.825,-78.5 793.55,-78.5 "/>
<text text-anchor="start" x="553.825" y="-63.3" font-family="Times,serif" font-size="14.00">id :integer</text>
<text text-anchor="start" x="553.825" y="-49.3" font-family="Times,serif" font-size="14.00">user_id :integer</text>
<text text-anchor="start" x="553.825" y="-35.3" font-family="Times,serif" font-size="14.00">instrument_id :integer</text>
<text text-anchor="start" x="553.825" y="-21.3" font-family="Times,serif" font-size="14.00">created_at :timestamp without time zone</text>
<text text-anchor="start" x="553.825" y="-7.3" font-family="Times,serif" font-size="14.00">updated_at :timestamp without time zone</text>
</g>
<!-- Instrument&#45;&gt;UserInstrument -->
<g id="edge3" class="edge"><title>Instrument&#45;&gt;UserInstrument</title>
<path fill="none" stroke="#65317f" d="M667.557,-399.686C672.166,-388.235 676.282,-375.914 678.688,-364 696.218,-277.192 687.745,-174.092 679.296,-110.732"/>
<ellipse fill="none" stroke="#65317f" cx="666.012" cy="-403.382" rx="4.00002" ry="4.00002"/>
<polygon fill="#65317f" stroke="#65317f" points="679.255,-110.436 682.347,-99.9152 678.572,-105.483 677.889,-100.53 677.889,-100.53 677.889,-100.53 678.572,-105.483 673.431,-101.144 679.255,-110.436 679.255,-110.436"/>
</g>
<!-- User&#45;&gt;UserBand -->
<g id="edge6" class="edge"><title>User&#45;&gt;UserBand</title>
<path fill="none" stroke="#772602" d="M429.84,-130.629C424.942,-123.338 420.145,-116.196 415.561,-109.372"/>
<ellipse fill="none" stroke="#772602" cx="432.213" cy="-134.161" rx="4.00002" ry="4.00002"/>
<polygon fill="#772602" stroke="#772602" points="415.453,-109.211 413.613,-98.401 412.665,-105.061 409.877,-100.91 409.877,-100.91 409.877,-100.91 412.665,-105.061 406.142,-103.419 415.453,-109.211 415.453,-109.211"/>
</g>
<!-- User&#45;&gt;UserInstrument -->
<g id="edge5" class="edge"><title>User&#45;&gt;UserInstrument</title>
<path fill="none" stroke="#68b4a6" d="M605.266,-131.222C611.411,-123.618 617.427,-116.172 623.164,-109.073"/>
<ellipse fill="none" stroke="#68b4a6" cx="602.722" cy="-134.371" rx="4.00002" ry="4.00002"/>
<polygon fill="#68b4a6" stroke="#68b4a6" points="623.475,-108.688 633.26,-103.739 626.618,-104.799 629.76,-100.91 629.76,-100.91 629.76,-100.91 626.618,-104.799 626.26,-98.0818 623.475,-108.688 623.475,-108.688"/>
</g>
</g>
</svg>
